<svg width="16" height="16" viewBox="0 0 16 16" fill="none" xmlns="http://www.w3.org/2000/svg">
<path d="M14.713 14.9943C14.713 15.3015 14.4642 15.5503 14.157 15.5503C13.5491 15.5503 11.3227 15.5578 11.215 15.5503C11.111 15.543 11.0654 15.5301 11.0377 15.5208C10.9457 15.4898 10.8857 15.4421 10.8727 15.4316C10.8063 15.3777 10.7617 15.3122 10.7112 15.2378C10.7036 15.2267 10.6981 15.2184 10.6974 15.2172C10.6218 15.1045 10.0393 14.2353 9.96377 14.1226C9.72096 13.7594 9.478 13.3965 9.23518 13.0334L8.65563 12.1686C8.57444 12.0455 8.50585 11.9457 8.45651 11.8708C8.45 11.8609 8.39044 11.7707 8.31607 11.7197C8.30496 11.712 8.29266 11.7046 8.29266 11.7046C8.23429 11.6688 8.18392 11.652 8.17 11.6476C8.14288 11.6389 8.082 11.6218 8.00229 11.6218C7.93118 11.6218 7.86318 11.6351 7.80066 11.6594C7.75014 11.6791 7.67977 11.7151 7.61503 11.7794C7.57163 11.8226 7.55622 11.8528 7.50214 11.9387C7.46703 11.9944 7.41548 12.0738 7.34822 12.1686L6.7694 13.0334L6.03992 14.1226L5.24733 15.3052C5.23814 15.3181 5.22911 15.3311 5.21918 15.3433C5.20451 15.3614 5.16214 15.4113 5.0937 15.4566C5.01903 15.5061 4.94659 15.5282 4.89829 15.5387C4.89829 15.5387 4.87103 15.5442 4.84274 15.547C4.73859 15.5575 1.95385 15.5464 1.8294 15.5501C1.82688 15.5501 1.81785 15.5506 1.80555 15.5501C1.71622 15.5473 1.64955 15.5137 1.61444 15.4953C1.4817 15.4264 1.38185 15.2975 1.33637 15.2024C1.32614 15.1809 1.28614 15.0972 1.28614 15.0009C1.28614 15.0009 1.28481 14.92 1.31118 14.8356C1.31326 14.8289 1.31577 14.8206 1.32007 14.8095C1.32466 14.7974 1.32955 14.7866 1.334 14.7772C1.34096 14.7628 1.34748 14.7519 1.35237 14.7436C1.366 14.7211 1.39503 14.6756 1.43414 14.6171C1.46481 14.5737 1.50674 14.5129 1.55503 14.4381C1.56644 14.4203 1.57459 14.4074 1.57711 14.4036C1.6137 14.3463 1.74318 14.1516 2.11666 13.5978C2.24274 13.4097 2.36866 13.2215 2.49474 13.0335L3.42496 11.6439L4.17948 10.5166L4.73237 9.69055L5.62763 8.35337C5.67385 8.28729 5.70244 8.23485 5.71059 8.21648C5.72111 8.19248 5.72807 8.17011 5.72807 8.17011C5.72807 8.17011 5.72926 8.16641 5.73029 8.16255C5.75503 8.07707 5.75459 7.99974 5.75459 7.99974C5.75444 7.96922 5.75148 7.94448 5.75 7.93203C5.7497 7.92922 5.74688 7.90626 5.74244 7.88418C5.72955 7.82952 5.71266 7.78789 5.69948 7.75989C5.68688 7.73322 5.67503 7.71352 5.67103 7.70685C5.65622 7.68255 5.40481 7.30818 4.73251 6.30892C4.54822 6.03352 4.36392 5.75826 4.17963 5.48285L3.42511 4.35559L2.49488 2.96596L2.11681 2.40166L1.42244 1.36492V1.36418C1.35977 1.27277 1.32377 1.19663 1.31296 1.16181C1.30377 1.13248 1.29844 1.10403 1.29844 1.10403C1.2974 1.09855 1.29444 1.0824 1.29237 1.06137C1.28688 1.00759 1.29074 0.962997 1.29237 0.947293C1.29726 0.899145 1.30733 0.862404 1.31207 0.846108C1.31607 0.832774 1.33163 0.78196 1.36377 0.7267C1.36377 0.7267 1.38437 0.693071 1.40718 0.662848C1.41177 0.656774 1.41637 0.651441 1.42081 0.646108C1.42496 0.641219 1.43385 0.6307 1.44437 0.619441C1.46155 0.601071 1.47651 0.588182 1.48259 0.582997C1.54422 0.529663 1.62007 0.49633 1.62007 0.49633C1.70126 0.460478 1.77074 0.452774 1.798 0.4507C1.81103 0.449663 1.82214 0.449367 1.83 0.449219H4.73237C4.81163 0.451885 4.8694 0.454848 4.87874 0.455885C4.89029 0.457071 4.90081 0.459885 4.90081 0.459885C4.902 0.460182 4.90288 0.460478 4.90363 0.460626C5.03414 0.492774 5.11903 0.550552 5.17444 0.60433C5.178 0.607885 5.18155 0.611441 5.18511 0.614997C5.18511 0.614997 5.18822 0.618256 5.19118 0.621811C5.19696 0.628626 5.23014 0.673071 5.27488 0.734404C5.53 1.11514 5.78496 1.49603 6.04007 1.87677L6.76955 2.96596L7.34837 3.8307L8.0017 4.80729L8.45429 5.4827L8.65592 5.78389L9.96407 7.73781L10.1398 7.99944L11.2715 9.69026L11.8244 10.5163L12.5796 11.6443L13.5098 13.0332L13.887 13.5975L14.5821 14.6357C14.6193 14.6904 14.645 14.7393 14.6624 14.7768C14.6993 14.8557 14.705 14.8953 14.7056 14.9036C14.7057 14.9058 14.7107 14.9237 14.7107 14.9483C14.7107 14.9483 14.713 14.9717 14.713 14.994V14.9943Z" fill="#753BBD"/>
<path d="M14.0411 1.77648C14.0411 1.91663 14.018 2.04182 13.9872 2.147C13.9592 2.24241 13.9305 2.30626 13.9231 2.32182C13.8997 2.3713 13.8779 2.40671 13.8465 2.45811C13.8204 2.50078 13.785 2.55574 13.74 2.61856C13.7392 2.6196 13.7385 2.62063 13.7377 2.62167L13.5081 2.96626L12.5802 4.35278C12.2395 4.86211 11.8988 5.37145 11.558 5.88078C11.1674 5.29723 10.7767 4.71352 10.386 4.12997C10.7709 3.55441 11.1558 2.979 11.5405 2.40345L11.5444 2.39737H9.22617L8.65654 1.547L7.92188 0.449522H12.5805C12.622 0.447299 12.6792 0.445818 12.7471 0.449522C12.7471 0.449522 12.9826 0.46241 13.19 0.540633C13.5149 0.663151 13.8605 0.98404 13.9853 1.39382C14.0395 1.57189 14.0416 1.73056 14.0416 1.77678L14.0411 1.77648Z" fill="#FF8F1C"/>
</svg>
